<svg xmlns="http://www.w3.org/2000/svg" width="18" height="16" viewBox="0 0 7 6">
    <defs>
        <mask id="pinMask">
            <rect width="7" height="6" fill="gold" />
            <path d="M4 1.2c-.4 0-.7.3-.7.7 0 .3.2.5.3.6L4 3l.4-.5c.1-.1.3-.3.3-.6 0-.4-.3-.7-.7-.7zm0 .3c.2 0 .4.2.4.4s-.2.4-.4.4-.4-.2-.4-.4.2-.4.4-.4z" transform="scale(1.75) translate(-1.75 -0.95)" />
            <rect x="1" y="0" width="6" height="4" fill="none" stroke="black" stroke-width="0.1" />
            <polyline points="0.5,1.25 0.5,5.25 6.75,5.25" fill="none" stroke="black" stroke-width="0.1" />
        </mask>
    </defs>

    <!-- All layers with the mask applied -->
    <g mask="url(#pinMask)">
        <!-- Base layer rectangle -->
        <rect x="0" y="2.5" width="6" height="4" fill="gold" opacity="0.7"/>
        <!-- Middle layer rectangle -->
        <rect x="0.5" y="1.25" width="6" height="4" fill="gold" opacity="0.85"/>
        <!-- Top layer rectangle -->
        <rect x="1" y="0" width="6" height="4" fill="gold"/>
    </g>
</svg>