<svg xmlns="http://www.w3.org/2000/svg" width="8" height="8" viewBox="0 0 8 8">
    <defs>
        <mask id="pinMask">
            <rect width="8" height="8" fill="white"/>
            <path d="M4.5 1.2c-.4 0-.7.3-.7.7 0 .3.2.5.3.6L4.5 3l.4-.5c.1-.1.3-.3.3-.6 0-.4-.3-.7-.7-.7zm0 .3c.2 0 .4.2.4.4s-.2.4-.4.4-.4-.2-.4-.4.2-.4.4-.4z" fill="black"/>
        </mask>
    </defs>

    <!-- All layers with the mask applied -->
    <g mask="url(#pinMask)">
        <!-- Base layer rectangle -->
        <rect x="1" y="3" width="5" height="3" fill="white" opacity="0.7"/>
        <!-- Middle layer rectangle -->
        <rect x="1.5" y="1.75" width="5" height="3" fill="white" opacity="0.85"/>
        <!-- Top layer rectangle -->
        <rect x="2" y="0.5" width="5" height="3" fill="white"/>
    </g>
</svg>