<svg xmlns="http://www.w3.org/2000/svg" id="Group_23" data-name="Group 23" width="100" height="100"
     viewBox="0 0 100 100">
    <defs>
        <clipPath id="clip-path">
            <rect id="Rectangle_16" data-name="Rectangle 16" width="100" height="100" fill="#3b2679"></rect>
        </clipPath>
    </defs>
    <g id="Group_6" data-name="Group 6" clip-path="url(#clip-path)">
        <path id="Path_740" data-name="Path 740"
              d="M25.118,100.64c.011-.123-.082-.208-.148-.3-2.714-3.867-5.223-7.837-7.817-11.764a99.073,99.073,0,0,0-5.919-8.265,29.771,29.771,0,0,0-4.8-4.826,14.685,14.685,0,0,0-2.853-1.759,9.574,9.574,0,0,0-3.019-.885A4.37,4.37,0,0,1,0,72.7c.168-.218.318-.411.466-.6Q5.84,65.065,11.215,58.032c.383-.5.289-.48.831-.106q2.146,1.48,4.137,3.117a32.636,32.636,0,0,1,6.627,7.44c.909,1.394,1.813,2.791,2.785,4.153a1.8,1.8,0,0,0,.408.492c.171-.094.221-.261.3-.4q2.747-4.673,5.715-9.243A178.851,178.851,0,0,1,50.7,39.386,173.291,173.291,0,0,1,67.251,23.8c6.642-5.5,13.685-10.585,20.926-15.466q5.333-3.6,10.768-7.072c.116-.074.235-.144.353-.217l.065.209-.028.024a.131.131,0,0,0-.061.055l-.032.028a.1.1,0,0,0-.054.046Q97.51,2.937,95.832,4.46C90.379,9.405,85,14.413,79.822,19.578A225.389,225.389,0,0,0,52.2,52.88c-5.124,7.569-9.819,15.336-14.231,23.237-4.474,8.011-8.659,16.137-12.682,24.327a1.9,1.9,0,0,0-.071.2Z"
              transform="translate(0 -0.64)" fill="#3b2679"></path>
        <path id="Path_741" data-name="Path 741"
              d="M222.012.62,221.947.41a2.45,2.45,0,0,1,.7-.409,2.721,2.721,0,0,1-.637.619"
              transform="translate(-122.649 -0.001)" fill="#3b2679"></path>
        <path id="Path_742" data-name="Path 742" d="M221.892,1.7a.126.126,0,0,1,.061-.055.1.1,0,0,1-.061.055"
              transform="translate(-122.618 -1.006)" fill="#3b2679"></path>
        <path id="Path_743" data-name="Path 743" d="M221.7,1.908a.1.1,0,0,1,.054-.046.07.07,0,0,1-.054.046"
              transform="translate(-122.511 -1.136)" fill="#3b2679"></path>
    </g>
</svg>