<?xml version="1.0" standalone="no"?>
<!DOCTYPE svg PUBLIC "-//W3C//DTD SVG 20010904//EN"
 "http://www.w3.org/TR/2001/REC-SVG-20010904/DTD/svg10.dtd">
<svg version="1.0" xmlns="http://www.w3.org/2000/svg"
 width="1821.000000pt" height="1777.000000pt" viewBox="0 0 1821.000000 1777.000000"
 preserveAspectRatio="xMidYMid meet">

	<g transform="translate(0.000000,1777.000000) scale(0.100000,-0.100000)"
	fill="#000000" stroke="none">
		<path d="M8580 16173 c-397 -26 -575 -46 -875 -98 -3063 -527 -5466 -2970
-5939 -6035 -94 -609 -111 -1259 -50 -1865 229 -2269 1515 -4297 3479 -5487
710 -430 1510 -740 2330 -902 426 -84 907 -136 1265 -136 135 0 148 2 152 18
5 17 24 19 244 25 1267 34 2520 414 3609 1095 702 438 1356 1028 1876 1692
797 1018 1312 2249 1474 3523 37 290 47 445 52 808 6 400 -3 606 -38 924 -286
2592 -1966 4842 -4381 5869 -683 290 -1411 471 -2173 541 -255 24 -852 40
-1025 28z m110 -922 l0 -259 -34 -12 c-52 -17 -139 -82 -258 -193 -163 -151
-281 -220 -397 -233 -78 -8 -105 -20 -191 -89 -153 -123 -257 -143 -599 -112
-189 18 -379 -2 -517 -54 -90 -34 -130 -72 -209 -204 -65 -106 -82 -127 -148
-177 -105 -81 -149 -135 -211 -262 -60 -122 -108 -185 -273 -358 -162 -168
-186 -206 -145 -223 9 -4 48 -13 86 -21 38 -7 71 -16 74 -18 26 -27 -90 -85
-408 -205 -333 -124 -471 -154 -543 -116 -15 8 -87 68 -160 134 -174 158 -171
156 -257 182 -91 28 -245 32 -359 9 -70 -14 -74 -14 -88 5 -21 28 -13 187 11
235 43 82 103 122 212 140 102 17 183 39 226 61 67 34 204 137 264 200 33 33
118 112 191 177 72 64 130 118 129 120 -2 1 -160 -52 -352 -118 -191 -66 -352
-119 -357 -117 -14 4 454 396 658 549 55 41 132 95 170 120 39 25 160 104 270
175 239 155 359 225 561 326 523 262 1089 431 1761 526 278 40 572 66 781 69
l112 2 0 -259z m855 238 c61 -5 187 -19 280 -30 147 -18 172 -24 188 -42 134
-163 426 -577 582 -827 300 -480 624 -1133 830 -1670 30 -79 55 -150 55 -157
0 -11 -211 -13 -1095 -13 l-1095 0 0 1380 0 1380 73 -6 c39 -3 122 -10 182
-15z m1561 -333 c778 -267 1514 -692 2164 -1249 168 -145 584 -568 729 -742
143 -172 311 -391 311 -406 0 -5 -448 -9 -1072 -9 l-1073 0 -64 178 c-264 731
-632 1485 -1009 2067 -125 192 -133 205 -124 205 5 0 67 -20 138 -44z m-3971
-2453 c10 -16 43 -56 73 -91 69 -79 172 -130 353 -177 133 -34 145 -40 335
-176 66 -48 92 -60 147 -70 36 -7 71 -15 77 -19 21 -13 31 -127 39 -490 l9
-365 32 -90 c44 -124 54 -141 120 -210 47 -50 59 -70 69 -113 6 -29 11 -58 11
-64 0 -22 -255 -3 -374 27 -104 27 -113 31 -185 92 -42 35 -108 79 -147 97
-64 31 -73 38 -91 82 -26 59 -49 150 -59 222 -6 51 -9 54 -63 89 -31 19 -76
54 -101 77 -25 23 -68 62 -97 85 -29 23 -67 57 -85 75 -36 35 -194 136 -261
165 -64 29 -228 71 -275 71 -63 0 -70 19 -73 175 l-3 130 41 90 c22 50 46 108
53 130 7 22 25 60 40 85 16 25 34 66 40 91 l12 46 94 -5 c91 -5 96 -4 122 20
61 57 119 65 147 21z m-813 -274 c26 -7 43 -19 53 -40 9 -16 36 -61 61 -100
51 -78 51 -89 -1 -139 -26 -25 -38 -31 -46 -23 -18 18 -36 5 -84 -63 -56 -77
-106 -114 -157 -114 -35 0 -38 2 -72 70 -19 39 -38 92 -41 118 -3 26 -10 64
-16 85 -13 50 0 71 88 134 38 26 74 55 81 65 15 21 75 24 134 7z m-2157 -179
c53 -16 112 -30 130 -30 43 0 58 -19 99 -127 28 -71 39 -121 51 -225 22 -191
27 -206 79 -228 69 -31 399 -86 484 -81 33 2 38 28 12 56 l-23 24 42 88 c52
109 74 133 118 133 44 0 83 -21 168 -90 79 -64 117 -80 284 -116 63 -14 117
-26 120 -28 3 -3 33 -59 66 -126 l60 -122 65 5 c104 8 168 33 214 82 107 113
186 130 402 85 53 -11 64 -19 124 -81 67 -70 106 -93 285 -170 118 -50 160
-97 218 -236 51 -123 57 -159 28 -194 -18 -23 -18 -23 30 -61 64 -50 68 -60
54 -121 -8 -38 -18 -55 -36 -64 -53 -27 -172 -10 -305 43 -99 40 -126 61 -189
149 -80 113 -87 135 -86 259 l2 110 -25 -27 c-14 -15 -31 -27 -39 -27 -8 0
-48 -22 -89 -49 -65 -42 -81 -59 -135 -143 -80 -125 -102 -168 -113 -226 -13
-72 -138 -251 -283 -409 -30 -32 -57 -67 -61 -78 -9 -31 20 -155 45 -189 13
-17 84 -95 158 -174 151 -157 165 -166 290 -177 121 -11 171 -41 171 -105 0
-10 4 -22 10 -25 5 -3 24 -52 41 -108 35 -111 57 -143 128 -185 42 -25 44 -25
58 -7 43 59 47 198 9 298 -25 66 -25 70 -16 210 11 162 25 253 50 343 18 61
18 65 0 101 -33 69 -98 228 -105 256 -7 25 -5 27 27 27 19 0 39 5 45 11 8 8
35 9 96 1 78 -9 93 -14 208 -80 68 -39 168 -92 222 -118 l98 -47 100 28 c125
36 131 33 141 -61 14 -132 -1 -116 235 -235 117 -58 228 -118 248 -134 46 -34
69 -86 60 -133 -20 -108 -101 -232 -150 -232 -17 0 -45 -24 -100 -87 -100
-114 -110 -134 -96 -187 6 -22 13 -60 17 -84 5 -35 13 -48 38 -63 26 -16 157
-74 275 -121 l33 -13 -193 -110 c-106 -61 -212 -128 -235 -150 -42 -40 -45
-47 -78 -185 -38 -154 -54 -201 -77 -226 -13 -14 -92 -75 -176 -135 -83 -60
-154 -117 -158 -127 -3 -11 4 -41 16 -67 20 -45 21 -60 16 -189 -8 -191 -14
-210 -83 -243 -39 -18 -73 -46 -112 -91 -31 -36 -100 -112 -153 -168 -144
-153 -183 -222 -144 -254 8 -7 15 -21 15 -32 0 -10 8 -35 19 -56 10 -20 37
-93 61 -162 40 -119 42 -129 36 -205 -7 -79 -25 -125 -49 -125 -7 0 -43 52
-81 115 -64 108 -68 117 -52 134 9 10 16 35 16 59 0 87 -101 154 -349 232
-147 46 -176 48 -280 13 -46 -15 -59 -26 -87 -68 -85 -128 -104 -139 -259
-140 -80 0 -127 5 -172 19 l-61 19 -54 -33 c-63 -38 -108 -79 -108 -97 0 -8
-14 -42 -32 -76 -43 -84 -48 -177 -19 -302 22 -92 36 -170 50 -287 7 -57 18
-83 66 -162 79 -131 79 -131 299 -118 96 5 182 15 195 21 12 7 49 54 82 104
34 51 68 100 77 111 17 18 203 116 222 116 5 0 10 -15 10 -34 0 -18 11 -54 25
-80 14 -26 25 -57 25 -68 0 -12 -26 -48 -61 -85 -56 -58 -61 -66 -55 -96 4
-18 11 -64 15 -103 10 -80 17 -97 61 -139 30 -29 35 -30 136 -33 80 -3 110 0
127 11 13 8 56 20 96 26 95 15 101 10 101 -82 0 -53 4 -75 18 -90 13 -15 17
-37 17 -96 1 -89 30 -201 53 -201 8 0 21 -8 29 -18 26 -33 63 -112 63 -135 0
-43 -15 -46 -108 -21 -138 36 -214 69 -325 139 -63 39 -120 68 -143 72 -22 3
-61 20 -89 38 -67 43 -197 115 -388 214 -187 98 -246 112 -477 114 l-145 2
-129 84 c-70 46 -173 106 -227 133 -88 44 -99 53 -110 86 -6 20 -20 47 -31 58
-23 26 -173 101 -284 144 -82 31 -164 81 -164 100 0 6 5 19 12 30 10 15 9 35
-2 97 -8 43 -15 116 -15 163 -1 81 -3 89 -47 175 -26 50 -53 122 -62 161 -20
91 -36 269 -36 402 0 101 -16 172 -39 172 -16 0 -69 -49 -92 -86 -20 -33 -21
-40 -10 -92 7 -32 35 -109 62 -173 27 -64 49 -131 49 -150 0 -24 -3 -30 -9
-20 -11 16 -11 16 -32 -94 -9 -49 -72 -227 -87 -245 -2 -3 -24 17 -47 44 -51
58 -63 95 -104 339 -28 164 -31 171 -99 312 -76 156 -85 187 -106 377 -18 173
-29 190 -186 298 -67 46 -132 97 -145 115 -38 49 -64 116 -77 200 l-12 78 32
27 32 26 0 146 c0 107 5 172 20 243 11 53 20 110 20 125 0 16 20 59 49 103 56
86 168 287 206 370 22 47 24 59 14 76 -11 16 -10 34 5 98 55 244 56 255 46
337 -5 43 -26 160 -46 260 -32 161 -37 206 -44 411 -9 249 -36 454 -85 635
-15 52 -37 147 -51 210 -14 63 -27 123 -30 133 -11 36 -112 9 -165 -45 -47
-49 -83 -50 -175 -4 l-69 35 -51 103 -51 103 18 43 c25 57 45 164 59 302 16
169 20 176 64 110 l26 -40 111 0 c94 0 110 2 106 15 -4 8 -9 48 -13 88 -6 70
-5 75 17 91 46 32 159 13 271 -46 80 -43 94 -37 91 37 -2 33 2 71 7 85 23 55
143 104 236 95 28 -3 95 -18 149 -35z m7548 -190 c70 -207 225 -893 286 -1270
76 -461 141 -1124 141 -1432 l0 -98 -1425 0 -1425 0 0 1430 0 1430 1203 -2
1202 -3 18 -55z m3094 -105 c322 -625 536 -1263 647 -1930 38 -228 52 -349 82
-697 l5 -68 -1378 0 -1379 0 -12 248 c-42 847 -171 1700 -371 2454 -21 81 -36
149 -33 152 3 4 534 5 1181 4 l1176 -3 82 -160z m-2667 -3453 c0 -193 -35
-638 -76 -972 -72 -586 -197 -1201 -349 -1722 l-16 -58 -1205 0 -1204 0 0
1425 0 1425 1425 0 1425 0 0 -98z m3394 26 c-38 -486 -84 -784 -184 -1185
-126 -504 -289 -939 -527 -1405 l-96 -188 -1177 0 c-647 0 -1179 2 -1182 5 -3
3 8 54 24 113 42 151 131 538 167 722 114 587 183 1152 212 1758 l12 252 1379
0 1378 0 -6 -72z m-8343 -2271 c19 -8 57 -28 84 -46 28 -17 86 -43 130 -57 92
-29 219 -113 213 -142 -10 -52 -342 14 -437 87 -33 25 -41 26 -152 26 -155 0
-164 7 -113 89 49 77 73 87 168 70 40 -7 88 -19 107 -27z m4294 -1154 c-4 -10
-19 -52 -35 -93 -274 -734 -659 -1474 -1093 -2100 -75 -108 -320 -441 -353
-479 -10 -12 -390 -55 -666 -75 l-48 -3 0 1383 0 1384 1101 0 c1045 0 1101 -1
1094 -17z m2835 11 c0 -10 -164 -226 -269 -354 -269 -328 -597 -656 -926 -925
-581 -476 -1255 -857 -1968 -1112 -99 -35 -183 -62 -188 -61 -4 2 43 82 105
178 406 629 774 1382 1031 2105 31 88 59 163 61 167 6 9 2154 11 2154 2z"/>
	</g>
</svg>
